<svg width="128" height="32" viewBox="0 0 128 32" fill="none" xmlns="http://www.w3.org/2000/svg">
  <defs>
    <linearGradient id="innovation-gradient" x1="0%" y1="0%" x2="100%" y2="100%">
      <stop offset="0%" style="stop-color:#06B6D4;stop-opacity:1" />
      <stop offset="100%" style="stop-color:#8B5CF6;stop-opacity:1" />
    </linearGradient>
  </defs>
  
  <!-- Icon - Lightbulb with connections -->
  <circle cx="10" cy="16" r="10" fill="url(#innovation-gradient)"/>
  <path d="M7 13C7 11 8.5 9.5 10 9.5C11.5 9.5 13 11 13 13C13 14 12.5 14.5 12 15L11 16H9L8 15C7.5 14.5 7 14 7 13Z" fill="white"/>
  <rect x="8.5" y="16" width="3" height="4" rx="0.5" fill="white"/>
  <line x1="10" y1="21" x2="10" y2="22" stroke="white" stroke-width="1"/>
  <circle cx="5" cy="10" r="1" fill="white"/>
  <circle cx="15" cy="10" r="1" fill="white"/>
  <line x1="6" y1="11" x2="8" y2="12" stroke="white" stroke-width="1"/>
  <line x1="14" y1="11" x2="12" y2="12" stroke="white" stroke-width="1"/>
  
  <!-- Text -->
  <text x="26" y="12" font-family="system-ui, -apple-system, sans-serif" font-size="7" font-weight="600" fill="white">Innovation</text>
  <text x="26" y="22" font-family="system-ui, -apple-system, sans-serif" font-size="6" font-weight="400" fill="#A1A1AA">Hub</text>
</svg> 